<svg xmlns="http://www.w3.org/2000/svg" viewBox="0 0 742.28 988"><defs><style>.cls-1{fill:none;}.cls-2{fill:#041e3e;}.cls-3{fill:#ffc828;}.cls-4{fill:#061848;}.cls-5{fill:#e3e7e8;}</style></defs><title>uci-logo_1</title><g id="Blue_U" data-name="Blue U"><path class="cls-1" d="M207,17v96h48V615s48,137,271,134S791,618,791,618V109h52V17H612v93h46l-1,472" transform="translate(-118.72 -17)"/><path class="cls-2" d="M271,64v75h38V629s-2,162,203,161S717,640,717,626V138h39V64H594v74h39V627s-1,11-2,14-9,29-26,42-48,23-80,23-69-2-86-12-33-25-39-42-6-21-6-27V138h38V64Z" transform="translate(-118.72 -17)"/></g><g id="Yellow_U" data-name="Yellow U"><path class="cls-3" d="M286,77v48h39V635s3,141,187,140S702,643,702,629V125h38V77H610v47h38V626s7,96-135,95S379,633,379,616V125h38V77Z" transform="translate(-118.72 -17)"/></g><g id="Blue_C" data-name="Blue C"><path class="cls-2" d="M799,383l51-68s-31-18-60-29-91-26-132-32-143-12-195-7-105,9-164,33-86,48-109,82-19,68-14,87,21,53,62,82,75,38,106,47,102,18,123,19,104,0,135-2,119-14,161-28,84-36,84-36l-52-70s-22,16-60,26-83,20-129,22-99,9-161,1-97-17-114-25-44-20-54-31-21-21-21-33,16-27,21-31,36-30,90-43,81-14,97-15,78-2,99-1,72,4,115,12S758,361,799,383Z" transform="translate(-118.72 -17)"/></g><g id="Yellow_C" data-name="Yellow C"><path class="cls-3" d="M796,364l33-44s-44-20-59-25-52-16-106-24-149-14-224-7-127,23-182,54-72,81-71,109,21,52,23,55,37,50,108,71,125,33,260,28,227-43,247-56l-33-44s-58,29-132,38-172,17-270-1-134-62-136-65-28-31,1-63,82-58,175-71,216,2,235,6S716,331,796,364Z" transform="translate(-118.72 -17)"/></g><g id="Blue_I" data-name="Blue I"><polygon class="cls-2" points="313.28 139 313.28 213 352.28 213 352.28 596 313.28 596 313.28 670 475.28 670 475.28 597 436.28 597 436.28 212 475.28 212 475.28 139 313.28 139"/></g><g id="Yellow_I" data-name="Yellow I"><polygon class="cls-3" points="328.28 152 460.28 152 460.28 199 422.28 199 422.28 610 460.28 610 460.28 657 328.28 657 328.28 610 368.28 610 368.28 199 328.28 199 328.28 152"/></g><g id="AEater_Outline" data-name="AEater Outline"><path class="cls-4" d="M265,775s-55,39-70,50-53,42-65,56-14,26-8,31,14,11,24,7,25-20,53-31,57-26,78-30,44-20,86-19c0,0-2,16,3,23s6,22,18,31v18s-15,12-15,24,16,21,24,22,27,0,27,0-13,11-13,20,5,18,13,18h6s-2,9,19,10h46c6,0,17-5,21-7s9-5,9-12-1-12-3-14-3-6-2-8a18.84,18.84,0,0,0,2-8V941a40.09,40.09,0,0,0,23,7c14,0,13,0,15-2s6-2,6-2,14,1,17-3,6-3,8-4,7-5,7-14-13-14-13-14,9-4,9-13V878l43,30v12s-13,14-13,20,8,13,13,16,23,7,29,7,31-2,46-8,24-17,24-25-5-11-10-15-9-5-10-12-1-25-1-25,25,39,60,39,48-17,57-27,33-48,33-115-33-113-51-129c0,0-7,57-19,72s-38,32-50,32-27-5-39-22-19-27-30-38-33-28-48-35-33-10-49-10-46,4-67,11-62,14-85,32-25,19-25,19-40,4-47,10c0,0-8-6-17-6s-14,13-18,18a71.26,71.26,0,0,0-7,11s-17,6-23,11S267,762,265,775Z" transform="translate(-118.72 -17)"/></g><g id="AEater_L2" data-name="AEater L2"><path class="cls-5" d="M271,783s-52,36-72,52-53,44-60,50-13,16-8,20,10,6,19-2,38-21,48-25,57-25,78-31,53-17,74-17,40-10,53-21,14-32,14-34,1-5,2-5,2,2,2,4,6,25-14,39-29,18-31,19-2,1-2,3a4.3,4.3,0,0,0,4,4c2,0,8,2,12,8s15,10,18,11,5,2,4,4-4,2-6,1-15-5-18-9-16-10-16-10-1,11,6,24,9,16,13,20,2,21,2,24-17,12-15,24,15,13,20,13,23,2,27,0,7,0,7-8-2-16,2-22,12-11,13-15,1-13,0-15-10-8-10-10,0-7,1-7,4,2,6,5,9,8,11,9,7,2,9,5,8,9,9,11,1,6,0,7-4-1-7-4-8-8-10-9c0,0-1,12-5,15s-9,10-9,18,2,13-2,17-27,23-25,31,8,10,12,9c0,0,3,8,6,8s17,3,23,2a10.67,10.67,0,0,0,8-6s3-2,4,1,3,7,6,7,11,1,20-3,13-5,15-6,3-5,3-6-2,0-3-3-6-8-6-13,8-2,7-15-4-34-1-37,5-5,5-14v-9H496s23-24,23-32,1-18,3-18,5,12,5,14,2,6,7,2,28-19,44-46,25-41,29-42,9-3,9,0-6,9-9,13-18,20-18,30-4,39,2,45,20,20,29,28,17,14,23,16,7,3,7,7-4,14-10,19-12,7-12,10,5,11,14,14,20,3,25,3,6-6,7-7,2-3,3-2a8.45,8.45,0,0,0,6,2c3,0,12,2,15,1s12-6,16-9,7-3,7-6-4-11-8-14-10-8-12-13,0-12,0-18,1-24-5-26-11-1-13-1-3,0-3-4,1-7,4-8,7-9,9-17,6-19,7-24,2-8,4-8,2,4,2,7-4,20,0,29,12,29,19,37,12,14,21,19,12,12,24,12,20-2,30-10,28-33,33-41,16-22,15-65-3-65-9-77-11-33-22-43c0,0,0,34-17,53s-36,36-55,37-33,1-36-1c0,0,1,14,0,17s-3,4-4,4-5,0-5-2,0-24-2-29-16-23-20-29-8-18-15-25-32-27-43-32-29-11-43-10-31,2-43,6a329.15,329.15,0,0,1-32,9c-9,2-38,9-45,12s-18,11-24,16-18,12-25,15-17,3-29,6-24,7-27,10-8-4-9-5-4-3-6-3-9,3-10,6a112.15,112.15,0,0,1-5,13c-2,4-2,7-6,9s-7,6-11,7-13,5-16,6-10,6-11,9S271,777,271,783Z" transform="translate(-118.72 -17)"/></g><g id="AEater_L3" data-name="AEater L3"><g id="Eye"><path class="cls-4" d="M372,760s-28-1-34,3-8,4-13,8-8,8-10,9a23.88,23.88,0,0,1-9,2c-3,0-7,2-8,0s-4-2-5-2-2,1-2,3,1,3,3,4,7,1,8,1,7-1,8-1a10.07,10.07,0,0,0-1,3c0,1,2,2,4,2s20,0,24-2,20-10,23-12,12-10,13-11,3-4,3-5S374,760,372,760Z" transform="translate(-118.72 -17)"/></g><g id="Ear"><path class="cls-4" d="M397,749s4-4,5-6,3-6,3-9a9.08,9.08,0,0,0-3-7c-2-2-11-3-13-1s-12,6-13,7-8,2-8,4a3.19,3.19,0,0,0,3,3c1,0,3-1,4,0s1,3,3,4a4.54,4.54,0,0,0,5,0c2-1,2-4,3-5s4-4,5-4a3.67,3.67,0,0,1,3,1c1,1,2,2,1,4s-4,6-3,7,2,3,3,3A3.49,3.49,0,0,0,397,749Z" transform="translate(-118.72 -17)"/></g><g id="Back"><path class="cls-4" d="M441,725s14,2,53,29,43,28,45,48-1,32-1,32,14-37,30-51,34-29,44-33,25-9,33-9,23,3,26,5a38.07,38.07,0,0,1,6,5s-1-10-5-15-23-21-31-25-40-15-55-15-38,2-47,6-28,11-33,14-10,5-12,5-5,0-6-1-2-2,0-3,3-3,9-6,20-11,25-13,22-10,37-11,35-1,40,0,21,6,27,9,18,9,22,12,7,4,8,4a2.15,2.15,0,0,0,2-2c0-1-2-4-6-7s-23-15-28-18-32-9-40-9-34,3-41,5-43,16-48,19-20,13-24,15S449,725,441,725Z" transform="translate(-118.72 -17)"/></g><g id="Stripe"><path class="cls-4" d="M429,807a109.77,109.77,0,0,0-3,11c-1,5-2,11-2,14s1,11,2,13,2,7,3,8,2,3,3,3,2-1,1-4a122.33,122.33,0,0,1-3-17c0-2,0-14,2-18s2-12,3-14,1-2,1-4,0-3-1-3-1,0-2,2S429,807,429,807Z" transform="translate(-118.72 -17)"/></g><g id="Stripe2"><path class="cls-4" d="M462,763s17,0,21,1,13,5,15,7,9,7,11,9,5,3,6,6,0,4-1,5-3,0-4-1-5-7-10-10-10-8-15-9-11-3-14-3-14,1-15-1-1-2,0-3S462,763,462,763Z" transform="translate(-118.72 -17)"/></g><g id="Foot"><path class="cls-4" d="M398,949s7,1,9,0,5-3,5-4,0-3,1-3,2,0,2,1,1,6,2,6,2,0,2,1-4,3-6,3-22,1-26-2-8-6-8-8,4-4,5-4,2,1,1,2a1.88,1.88,0,0,0,0,3c1,1,3,5,5,5Z" transform="translate(-118.72 -17)"/></g><g id="Grey_Foot" data-name="Grey Foot"><path class="cls-5" d="M564,867s-16,15-23,18-16,6-16,6,0,13-1,17-8,12-8,12-2,8,0,11,10,3,11,3a2.15,2.15,0,0,1,2,2c0,1,0,4,2,5s9,3,11,3,7-1,8-2,0-6,1-6a3.67,3.67,0,0,1,3,1c1,1,6,2,8,2s8,1,10,0,2-6,3-6,4,1,6,1a8.23,8.23,0,0,0,7-6c1-4-1-8-3-10s-11-5-11-11,5-5,6-6,4-8,4-10-4-4-4-7,5-3,5-6,2-12,0-15-4-8-7-8-7,2-9,4S565,866,564,867Z" transform="translate(-118.72 -17)"/></g></g><g id="Eye-2" data-name="Eye"><path class="cls-5" d="M326,779s3-4,5-5,7-3,10-3,7,0,9-1c0,0-3,2-4,4s-2,4-4,5-7,3-9,3-6,1-7,0S326,779,326,779Z" transform="translate(-118.72 -17)"/></g></svg>