<svg xmlns="http://www.w3.org/2000/svg" viewBox="0 0 829 954"><defs><style>.cls-1{fill:none;}.cls-2,.cls-5{fill:#061848;}.cls-3{fill:#ffc828;}.cls-4{fill:#e3e7e8;}.cls-5{font-size:81.92px;font-family:TwCenMT-Regular, Tw Cen MT;letter-spacing:0.4em;}</style></defs><title>uci-logo_3</title><g id="Blue_U" data-name="Blue U"><path class="cls-1" d="M248.55,17v83.17h41.59V535.11S331.73,653.8,524.93,651.2s229.6-113.5,229.6-113.5v-441h45.05V17H599.44V97.57H639.3l-.87,408.94" transform="translate(-112 -17)"/><path class="cls-2" d="M304,57.72v65h32.93V547.23S335.19,687.59,512.8,686.72s177.62-130,177.62-142.08V121.83H724.2V57.72H583.85v64.11h33.79V545.5s-.87,9.53-1.73,12.13-7.8,25.13-22.53,36.39S551.79,614,524.07,614s-59.78-1.74-74.51-10.4S421,581.89,415.77,567.16s-5.2-18.19-5.2-23.39V121.83h32.92V57.72Z" transform="translate(-112 -17)"/></g><g id="Yellow_U" data-name="Yellow U"><path class="cls-3" d="M317,69v41.59h33.79V552.43s2.6,122.17,162,121.3,164.62-114.37,164.62-126.5V110.57h32.92V69H597.71V109.7h32.92V544.64s6.07,83.17-117,82.3-116.1-76.24-116.1-91V110.57H430.5V69Z" transform="translate(-112 -17)"/></g><g id="Blue_C" data-name="Blue C"><path class="cls-2" d="M761.46,334.1l44.19-58.91s-26.86-15.6-52-25.13-78.84-22.53-114.36-27.72-123.9-10.4-168.95-6.07-91,7.8-142.09,28.59-74.51,41.59-94.44,71.05-16.46,58.91-12.13,75.37,18.2,45.92,53.72,71.05,65,32.92,91.84,40.72,88.37,15.59,106.57,16.46,90.1,0,117-1.73,103.1-12.13,139.49-24.26,72.78-31.19,72.78-31.19L758,401.68s-19.06,13.86-52,22.53-71.91,17.32-111.76,19.06-85.78,7.79-139.49.86S370.71,429.4,356,422.47s-38.13-17.32-46.79-26.85S291,377.42,291,367s13.86-23.39,18.19-26.85,31.19-26,78-37.26,70.17-12.13,84-13,67.58-1.73,85.77-.86,62.38,3.46,99.64,10.4S725.94,315,761.46,334.1Z" transform="translate(-112 -17)"/></g><g id="Yellow_C" data-name="Yellow C"><path class="cls-3" d="M758.86,317.64l28.59-38.12s-38.12-17.33-51.12-21.66S691.28,244,644.5,237.06,515.4,224.94,450.42,231s-110,19.93-157.68,46.79S230.36,348,231.23,372.22s18.19,45.06,19.92,47.65,32.06,43.32,93.57,61.52S453,510,570,505.65s196.67-37.26,214-48.52L755.4,419S705.14,444.13,641,451.93s-149,14.73-233.93-.87S291,397.35,289.27,394.75s-24.26-26.86.87-54.58,71-50.26,151.62-61.52,187.14,1.73,203.6,5.2S689.55,289.05,758.86,317.64Z" transform="translate(-112 -17)"/></g><g id="Blue_I" data-name="Blue I"><polygon class="cls-2" points="331.49 120.43 331.49 184.54 365.28 184.54 365.28 516.37 331.49 516.37 331.49 580.49 471.85 580.49 471.85 517.24 438.06 517.24 438.06 183.68 471.85 183.68 471.85 120.43 331.49 120.43"/></g><g id="Yellow_I" data-name="Yellow I"><polygon class="cls-3" points="344.49 131.69 458.85 131.69 458.85 172.41 425.93 172.41 425.93 528.5 458.85 528.5 458.85 569.22 344.49 569.22 344.49 528.5 379.14 528.5 379.14 172.41 344.49 172.41 344.49 131.69"/></g><g id="AEater_Outline" data-name="AEater Outline"><path class="cls-2" d="M288.18,673.73s-47.65,33.79-60.65,43.32-45.92,36.39-56.31,48.52-12.13,22.52-6.93,26.86,12.13,9.53,20.79,6.06,21.66-17.33,45.92-26.86,49.38-22.52,67.58-26,38.12-17.33,74.51-16.46c0,0-1.74,13.86,2.6,19.93s5.19,19.06,15.59,26.85v15.6s-13,10.4-13,20.79,13.86,18.2,20.79,19.06,23.39,0,23.39,0-11.26,9.53-11.26,17.33,4.33,15.6,11.26,15.6h5.2s-1.73,7.79,16.46,8.66H484c5.19,0,14.72-4.33,18.19-6.06s7.8-4.34,7.8-10.4-.87-10.4-2.6-12.13-2.6-5.2-1.73-6.93a16.44,16.44,0,0,0,1.73-6.93v-13a34.73,34.73,0,0,0,19.93,6.07c12.13,0,11.26,0,13-1.74s5.2-1.73,5.2-1.73,12.13.87,14.73-2.6,5.2-2.6,6.93-3.46,6.06-4.34,6.06-12.13S562,789.83,562,789.83s7.8-3.47,7.8-11.27V763L607,789v10.4s-11.26,12.13-11.26,17.32S602.68,828,607,830.55s19.93,6.06,25.13,6.06S659,834.88,672,829.68,692.79,815,692.79,808s-4.33-9.53-8.67-13-7.79-4.33-8.66-10.39-.87-21.66-.87-21.66,21.66,33.79,52,33.79S768.16,782,776,773.36s28.59-41.58,28.59-99.63S776,575.83,760.37,562c0,0-6.07,49.39-16.46,62.38S711,652.07,700.59,652.07s-23.4-4.33-33.79-19.06-16.47-23.39-26-32.92-28.59-24.26-41.58-30.33-28.59-8.66-42.46-8.66-39.85,3.46-58.05,9.53S445,582.76,425.07,598.35s-21.66,16.46-21.66,16.46-34.65,3.47-40.72,8.67c0,0-6.93-5.2-14.73-5.2s-12.13,11.26-15.59,15.59a62,62,0,0,0-6.07,9.53s-14.73,5.2-19.93,9.54S289.91,662.47,288.18,673.73Z" transform="translate(-112 -17)"/></g><g id="AEater_L2" data-name="AEater L2"><path class="cls-4" d="M293.38,680.66s-45,31.19-62.38,45.05S185.08,763.83,179,769s-11.26,13.86-6.93,17.33,8.67,5.2,16.46-1.73,32.93-18.2,41.59-21.66,49.39-21.66,67.58-26.86,45.92-14.73,64.11-14.73,34.66-8.66,45.92-18.19,12.13-27.73,12.13-29.46.87-4.33,1.74-4.33,1.73,1.73,1.73,3.46,5.2,21.66-12.13,33.79-25.13,15.6-26.86,16.46-1.73.87-1.73,2.6a3.72,3.72,0,0,0,3.46,3.47c1.74,0,6.93,1.73,10.4,6.93s13,8.66,15.6,9.53,4.33,1.73,3.46,3.47-3.46,1.73-5.2.86-13-4.33-15.59-7.8-13.87-8.66-13.87-8.66-.86,9.53,5.2,20.79,7.8,13.87,11.27,17.33,1.73,18.2,1.73,20.8-14.73,10.39-13,20.79,13,11.26,17.33,11.26,19.93,1.73,23.39,0,6.07,0,6.07-6.93-1.73-13.86,1.73-19.06,10.4-9.53,11.26-13,.87-11.26,0-13-8.66-6.93-8.66-8.67,0-6.06.87-6.06,3.46,1.73,5.2,4.33,7.79,6.93,9.53,7.8,6.06,1.73,7.79,4.33,6.93,7.8,7.8,9.53.87,5.2,0,6.07-3.46-.87-6.06-3.47-6.93-6.93-8.67-7.8c0,0-.86,10.4-4.33,13a20.86,20.86,0,0,0-7.8,15.59c0,6.94,1.74,11.27-1.73,14.73s-23.39,19.93-21.66,26.86,6.93,8.66,10.4,7.8c0,0,2.6,6.93,5.2,6.93s14.72,2.6,19.92,1.73a9.22,9.22,0,0,0,6.93-5.2s2.6-1.73,3.47.87,2.6,6.07,5.2,6.07,9.53.86,17.33-2.6,11.26-4.34,13-5.2,2.6-4.33,2.6-5.2-1.73,0-2.6-2.6-5.2-6.93-5.2-11.26,6.93-1.74,6.07-13S497,797.62,499.58,795s4.33-4.33,4.33-12.13V775.1H488.32s19.93-20.8,19.93-27.73.86-15.59,2.59-15.59,4.34,10.39,4.34,12.13,1.73,5.2,6.06,1.73,24.26-16.46,38.12-39.85S581,670.26,584.49,669.4s7.8-2.6,7.8,0-5.2,7.79-7.8,11.26-15.6,17.33-15.6,26-3.46,33.79,1.74,39S588,763,595.75,769.9s14.73,12.13,19.93,13.86,6.06,2.6,6.06,6.07-3.46,12.13-8.66,16.46-10.4,6.06-10.4,8.66,4.33,9.53,12.13,12.13,17.33,2.6,21.66,2.6,5.2-5.2,6.07-6.06,1.73-2.6,2.6-1.74a7.29,7.29,0,0,0,5.19,1.74c2.6,0,10.4,1.73,13,.86s10.4-5.2,13.86-7.8,6.07-2.59,6.07-5.19-3.47-9.53-6.93-12.13-8.67-6.93-10.4-11.27,0-10.39,0-15.59.87-20.8-4.33-22.53-9.53-.86-11.27-.86-2.59,0-2.59-3.47.86-6.07,3.46-6.93,6.07-7.8,7.8-14.73,5.2-16.46,6.06-20.79,1.74-6.93,3.47-6.93,1.73,3.46,1.73,6.06-3.46,17.33,0,25.13,10.4,25.12,16.46,32,10.4,12.13,18.2,16.46,10.39,10.4,20.79,10.4,17.33-1.73,26-8.66,24.26-28.59,28.59-35.53,13.87-19.06,13-56.31-2.6-56.32-7.8-66.71-9.53-28.6-19.06-37.26c0,0,0,29.46-14.73,45.92S720.51,659,704.05,659.87s-28.59.86-31.19-.87c0,0,.87,12.13,0,14.73s-2.6,3.46-3.46,3.46-4.34,0-4.34-1.73,0-20.79-1.73-25.12S649.47,630.41,646,625.21s-6.93-15.59-13-21.66-27.73-23.39-37.26-27.72-25.12-9.53-37.25-8.67-26.86,1.73-37.26,5.2a284,284,0,0,1-27.72,7.8c-7.8,1.73-32.93,7.8-39,10.39s-15.6,9.54-20.79,13.87-15.6,10.39-21.66,13-14.73,2.6-25.13,5.2-20.79,6.07-23.39,8.67-6.93-3.47-7.8-4.34-3.47-2.6-5.2-2.6-7.8,2.6-8.66,5.2a98.62,98.62,0,0,1-4.33,11.27c-1.74,3.46-1.74,6.06-5.2,7.79s-6.07,5.2-9.53,6.07S311.57,659,309,659.87s-8.66,5.19-9.53,7.79S293.38,675.46,293.38,680.66Z" transform="translate(-112 -17)"/></g><g id="AEater_L3" data-name="AEater L3"><g id="Eye"><path class="cls-2" d="M380.88,660.73s-24.25-.86-29.45,2.6-6.93,3.47-11.27,6.93-6.93,6.93-8.66,7.8a20.62,20.62,0,0,1-7.8,1.73c-2.6,0-6.06,1.74-6.93,0s-3.46-1.73-4.33-1.73-1.73.87-1.73,2.6.86,2.6,2.6,3.47,6.06.86,6.93.86,6.06-.86,6.93-.86a8.69,8.69,0,0,0-.87,2.59c0,.87,1.73,1.74,3.47,1.74s17.33,0,20.79-1.74,17.33-8.66,19.93-10.39,10.39-8.67,11.26-9.53,2.6-3.47,2.6-4.33S382.62,660.73,380.88,660.73Z" transform="translate(-112 -17)"/></g><g id="Ear"><path class="cls-2" d="M402.54,651.2s3.47-3.46,4.34-5.2,2.6-5.19,2.6-7.79a7.88,7.88,0,0,0-2.6-6.07c-1.74-1.73-9.53-2.6-11.27-.86s-10.39,5.19-11.26,6.06-6.93,1.73-6.93,3.47a2.76,2.76,0,0,0,2.6,2.59c.86,0,2.6-.86,3.46,0s.87,2.6,2.6,3.47a3.93,3.93,0,0,0,4.34,0c1.73-.87,1.73-3.47,2.59-4.33s3.47-3.47,4.34-3.47a3.19,3.19,0,0,1,2.6.87c.86.87,1.73,1.73.86,3.46s-3.46,5.2-2.6,6.07,1.74,2.6,2.6,2.6A3,3,0,0,0,402.54,651.2Z" transform="translate(-112 -17)"/></g><g id="Back"><path class="cls-2" d="M440.67,630.41s12.13,1.73,45.92,25.12,37.25,24.26,39,41.59-.86,27.73-.86,27.73,12.13-32.06,26-44.19,29.46-25.13,38.12-28.59,21.66-7.8,28.59-7.8,19.93,2.6,22.53,4.33a33.28,33.28,0,0,1,5.2,4.34s-.87-8.67-4.34-13-19.92-18.2-26.85-21.66-34.66-13-47.66-13-32.92,1.74-40.72,5.2S501.31,620,497,622.61s-8.66,4.33-10.39,4.33-4.34,0-5.2-.86-1.74-1.74,0-2.6,2.6-2.6,7.79-5.2,17.33-9.53,21.66-11.26,19.07-8.67,32.06-9.53,30.32-.87,34.66,0,18.19,5.19,23.39,7.79,15.59,7.8,19.06,10.4,6.07,3.47,6.93,3.47a1.86,1.86,0,0,0,1.73-1.74c0-.86-1.73-3.46-5.19-6.06s-19.93-13-24.26-15.6S571.49,588,564.56,588s-29.46,2.59-35.52,4.33-37.26,13.86-41.59,16.46-17.33,11.26-20.79,13S447.6,630.41,440.67,630.41Z" transform="translate(-112 -17)"/></g><g id="Stripe"><path class="cls-2" d="M430.27,701.45a96.25,96.25,0,0,0-2.6,9.53,80.37,80.37,0,0,0-1.73,12.13c0,2.6.86,9.53,1.73,11.27s1.73,6.06,2.6,6.93,1.73,2.6,2.6,2.6,1.73-.87.87-3.47a105.31,105.31,0,0,1-2.6-14.73c0-1.73,0-12.13,1.73-15.59s1.73-10.4,2.6-12.13a5.24,5.24,0,0,0,.86-3.47c0-1.73,0-2.6-.86-2.6s-.87,0-1.73,1.74S430.27,701.45,430.27,701.45Z" transform="translate(-112 -17)"/></g><g id="Stripe2"><path class="cls-2" d="M458.86,663.33s14.73,0,18.19.87,11.27,4.33,13,6.06,7.8,6.07,9.53,7.8,4.33,2.6,5.2,5.2,0,3.46-.87,4.33-2.6,0-3.46-.87-4.33-6.06-8.67-8.66-8.66-6.93-13-7.8-9.53-2.6-12.13-2.6-12.13.87-13-.86-.86-1.74,0-2.6S458.86,663.33,458.86,663.33Z" transform="translate(-112 -17)"/></g><g id="Foot"><path class="cls-2" d="M403.41,824.48s6.07.87,7.8,0,4.33-2.6,4.33-3.46,0-2.6.87-2.6,1.73,0,1.73.86.87,5.2,1.73,5.2,1.74,0,1.74.87-3.47,2.6-5.2,2.6-19.06.86-22.53-1.74S387,821,387,819.28s3.47-3.46,4.33-3.46,1.73.86.87,1.73a1.62,1.62,0,0,0,0,2.6c.86.87,2.6,4.33,4.33,4.33Z" transform="translate(-112 -17)"/></g><g id="Grey_Foot" data-name="Grey Foot"><path class="cls-4" d="M547.23,753.44s-13.86,13-19.92,15.59-13.87,5.2-13.87,5.2,0,11.26-.86,14.73-6.93,10.4-6.93,10.4-1.74,6.93,0,9.53,8.66,2.6,9.53,2.6a1.86,1.86,0,0,1,1.73,1.73c0,.87,0,3.46,1.73,4.33s7.8,2.6,9.53,2.6,6.07-.87,6.93-1.73,0-5.2.87-5.2a3.18,3.18,0,0,1,2.6.87c.87.86,5.2,1.73,6.93,1.73s6.93.86,8.66,0,1.74-5.2,2.6-5.2,3.47.87,5.2.87a7.15,7.15,0,0,0,6.07-5.2,9.68,9.68,0,0,0-2.6-8.67c-1.74-1.73-9.53-4.33-9.53-9.53s4.33-4.33,5.2-5.2,3.46-6.93,3.46-8.66-3.46-3.46-3.46-6.06,4.33-2.6,4.33-5.2,1.73-10.4,0-13S562,743,559.36,743a12.84,12.84,0,0,0-7.79,3.47C549.83,748.24,548.1,752.57,547.23,753.44Z" transform="translate(-112 -17)"/></g></g><g id="Eye-2" data-name="Eye"><path class="cls-4" d="M341,677.19s2.6-3.46,4.33-4.33,6.07-2.6,8.67-2.6,6.06,0,7.79-.86a12.09,12.09,0,0,0-3.46,3.46c-.87,1.74-1.73,3.47-3.47,4.33s-6.06,2.6-7.79,2.6-5.2.87-6.07,0S341,677.19,341,677.19Z" transform="translate(-112 -17)"/></g><g id="Text"><text class="cls-5" transform="translate(0 931.24) scale(1.12 1)">ICE HOCKEY</text></g></svg>